<?xml version="1.0" encoding="UTF-8" standalone="no"?>
<!DOCTYPE svg PUBLIC "-//W3C//DTD SVG 1.1//EN"
 "http://www.w3.org/Graphics/SVG/1.1/DTD/svg11.dtd">
<!-- Generated by graphviz version 9.0.0 (20230911.1827)
 -->
<!-- Pages: 1 -->
<svg width="409pt" height="395pt"
 viewBox="0.00 0.00 408.75 395.00" xmlns="http://www.w3.org/2000/svg" xmlns:xlink="http://www.w3.org/1999/xlink">
<g id="graph0" class="graph" transform="scale(1 1) rotate(0) translate(4 391)">
<polygon fill="white" stroke="none" points="-4,4 -4,-391 404.75,-391 404.75,4 -4,4"/>
<!-- K -->
<g id="node1" class="node">
<title>K</title>
<ellipse fill="none" stroke="black" cx="121" cy="-369" rx="27" ry="18"/>
<text text-anchor="middle" x="121" y="-363.57" font-family="Times New Roman,serif" font-size="14.00">K</text>
</g>
<!-- I -->
<g id="node2" class="node">
<title>I</title>
<ellipse fill="none" stroke="black" cx="235" cy="-193.5" rx="27" ry="18"/>
<text text-anchor="middle" x="235" y="-188.07" font-family="Times New Roman,serif" font-size="14.00">I</text>
</g>
<!-- K&#45;&#45;I -->
<g id="edge1" class="edge">
<title>K&#45;&#45;I</title>
<path fill="none" stroke="black" d="M142.25,-357.47C162.95,-346.05 193.62,-325.85 210,-299.25 226.96,-271.71 232.42,-233.56 234.17,-211.71"/>
<text text-anchor="middle" x="231.75" y="-275.82" font-family="Times New Roman,serif" font-size="14.00">11</text>
</g>
<!-- L -->
<g id="node3" class="node">
<title>L</title>
<ellipse fill="none" stroke="black" cx="102" cy="-281.25" rx="27" ry="18"/>
<text text-anchor="middle" x="102" y="-275.82" font-family="Times New Roman,serif" font-size="14.00">L</text>
</g>
<!-- K&#45;&#45;L -->
<g id="edge2" class="edge">
<title>K&#45;&#45;L</title>
<path fill="none" stroke="black" d="M117.25,-351.06C113.94,-336.12 109.14,-314.46 105.81,-299.45"/>
<text text-anchor="middle" x="120.75" y="-319.7" font-family="Times New Roman,serif" font-size="14.00">12</text>
</g>
<!-- J -->
<g id="node4" class="node">
<title>J</title>
<ellipse fill="none" stroke="black" cx="102" cy="-193.5" rx="27" ry="18"/>
<text text-anchor="middle" x="102" y="-188.07" font-family="Times New Roman,serif" font-size="14.00">J</text>
</g>
<!-- K&#45;&#45;J -->
<g id="edge3" class="edge">
<title>K&#45;&#45;J</title>
<path fill="none" stroke="black" d="M102.08,-355.61C85.48,-343.5 62.47,-323.39 52.5,-299.25 38.91,-266.35 67.77,-228.87 86.88,-208.87"/>
<text text-anchor="middle" x="59.75" y="-275.82" font-family="Times New Roman,serif" font-size="14.00">16</text>
</g>
<!-- G -->
<g id="node5" class="node">
<title>G</title>
<ellipse fill="none" stroke="black" cx="174" cy="-281.25" rx="27" ry="18"/>
<text text-anchor="middle" x="174" y="-275.82" font-family="Times New Roman,serif" font-size="14.00">G</text>
</g>
<!-- K&#45;&#45;G -->
<g id="edge4" class="edge">
<title>K&#45;&#45;G</title>
<path fill="none" stroke="black" d="M130.97,-351.87C140.44,-336.54 154.62,-313.61 164.08,-298.31"/>
<text text-anchor="middle" x="158.75" y="-319.7" font-family="Times New Roman,serif" font-size="14.00">10</text>
</g>
<!-- L&#45;&#45;J -->
<g id="edge10" class="edge">
<title>L&#45;&#45;J</title>
<path fill="none" stroke="black" d="M102,-262.9C102,-248.02 102,-226.7 102,-211.83"/>
<text text-anchor="middle" x="105.38" y="-231.95" font-family="Times New Roman,serif" font-size="14.00">4</text>
</g>
<!-- E -->
<g id="node7" class="node">
<title>E</title>
<ellipse fill="none" stroke="black" cx="97" cy="-105.75" rx="27" ry="18"/>
<text text-anchor="middle" x="97" y="-100.33" font-family="Times New Roman,serif" font-size="14.00">E</text>
</g>
<!-- J&#45;&#45;E -->
<g id="edge12" class="edge">
<title>J&#45;&#45;E</title>
<path fill="none" stroke="black" d="M93.12,-176.24C90.44,-170.49 87.85,-163.87 86.5,-157.5 84.08,-146.06 86.82,-133.15 90.11,-123.21"/>
<text text-anchor="middle" x="93.75" y="-144.2" font-family="Times New Roman,serif" font-size="14.00">18</text>
</g>
<!-- H -->
<g id="node9" class="node">
<title>H</title>
<ellipse fill="none" stroke="black" cx="181" cy="-105.75" rx="27" ry="18"/>
<text text-anchor="middle" x="181" y="-100.33" font-family="Times New Roman,serif" font-size="14.00">H</text>
</g>
<!-- J&#45;&#45;H -->
<g id="edge11" class="edge">
<title>J&#45;&#45;H</title>
<path fill="none" stroke="black" d="M115.76,-177.56C130.26,-161.82 152.96,-137.19 167.4,-121.52"/>
<text text-anchor="middle" x="154.75" y="-144.2" font-family="Times New Roman,serif" font-size="14.00">17</text>
</g>
<!-- G&#45;&#45;I -->
<g id="edge7" class="edge">
<title>G&#45;&#45;I</title>
<path fill="none" stroke="black" d="M185.19,-264.52C196.19,-249.05 212.9,-225.57 223.88,-210.13"/>
<text text-anchor="middle" x="212.38" y="-231.95" font-family="Times New Roman,serif" font-size="14.00">5</text>
</g>
<!-- G&#45;&#45;J -->
<g id="edge8" class="edge">
<title>G&#45;&#45;J</title>
<path fill="none" stroke="black" d="M161.13,-264.92C148.02,-249.31 127.83,-225.26 114.76,-209.7"/>
<text text-anchor="middle" x="150.75" y="-231.95" font-family="Times New Roman,serif" font-size="14.00">19</text>
</g>
<!-- G&#45;&#45;H -->
<g id="edge9" class="edge">
<title>G&#45;&#45;H</title>
<path fill="none" stroke="black" d="M174.7,-262.98C176.04,-229.81 178.95,-157.53 180.3,-124.21"/>
<text text-anchor="middle" x="184.75" y="-188.07" font-family="Times New Roman,serif" font-size="14.00">15</text>
</g>
<!-- F -->
<g id="node6" class="node">
<title>F</title>
<ellipse fill="none" stroke="black" cx="27" cy="-193.5" rx="27" ry="18"/>
<text text-anchor="middle" x="27" y="-188.07" font-family="Times New Roman,serif" font-size="14.00">F</text>
</g>
<!-- F&#45;&#45;E -->
<g id="edge5" class="edge">
<title>F&#45;&#45;E</title>
<path fill="none" stroke="black" d="M39.51,-177.17C52.26,-161.56 71.89,-137.51 84.59,-121.95"/>
<text text-anchor="middle" x="72.38" y="-144.2" font-family="Times New Roman,serif" font-size="14.00">2</text>
</g>
<!-- D -->
<g id="node8" class="node">
<title>D</title>
<ellipse fill="none" stroke="black" cx="240" cy="-18" rx="27" ry="18"/>
<text text-anchor="middle" x="240" y="-12.57" font-family="Times New Roman,serif" font-size="14.00">D</text>
</g>
<!-- F&#45;&#45;D -->
<g id="edge6" class="edge">
<title>F&#45;&#45;D</title>
<path fill="none" stroke="black" d="M26.82,-175.39C27.5,-152.59 32.06,-112.28 54.25,-87.75 96.35,-41.21 172.83,-26.09 213.27,-21.24"/>
<text text-anchor="middle" x="58.38" y="-100.33" font-family="Times New Roman,serif" font-size="14.00">3</text>
</g>
<!-- E&#45;&#45;D -->
<g id="edge20" class="edge">
<title>E&#45;&#45;D</title>
<path fill="none" stroke="black" d="M116.58,-93.01C143.97,-76.59 193.4,-46.95 220.65,-30.6"/>
<text text-anchor="middle" x="184.38" y="-56.45" font-family="Times New Roman,serif" font-size="14.00">9</text>
</g>
<!-- B -->
<g id="node10" class="node">
<title>B</title>
<ellipse fill="none" stroke="black" cx="339" cy="-369" rx="27" ry="18"/>
<text text-anchor="middle" x="339" y="-363.57" font-family="Times New Roman,serif" font-size="14.00">B</text>
</g>
<!-- B&#45;&#45;D -->
<g id="edge14" class="edge">
<title>B&#45;&#45;D</title>
<path fill="none" stroke="black" d="M354.91,-354.26C371.15,-338.62 394,-311.43 394,-282.25 394,-282.25 394,-282.25 394,-104.75 394,-47.22 310.95,-27.94 266.82,-21.76"/>
<text text-anchor="middle" x="397.38" y="-188.07" font-family="Times New Roman,serif" font-size="14.00">1</text>
</g>
<!-- A -->
<g id="node11" class="node">
<title>A</title>
<ellipse fill="none" stroke="black" cx="339" cy="-281.25" rx="27" ry="18"/>
<text text-anchor="middle" x="339" y="-275.82" font-family="Times New Roman,serif" font-size="14.00">A</text>
</g>
<!-- B&#45;&#45;A -->
<g id="edge13" class="edge">
<title>B&#45;&#45;A</title>
<path fill="none" stroke="black" d="M339,-350.65C339,-335.77 339,-314.45 339,-299.58"/>
<text text-anchor="middle" x="345.75" y="-319.7" font-family="Times New Roman,serif" font-size="14.00">13</text>
</g>
<!-- C -->
<g id="node12" class="node">
<title>C</title>
<ellipse fill="none" stroke="black" cx="307" cy="-193.5" rx="27" ry="18"/>
<text text-anchor="middle" x="307" y="-188.07" font-family="Times New Roman,serif" font-size="14.00">C</text>
</g>
<!-- B&#45;&#45;C -->
<g id="edge15" class="edge">
<title>B&#45;&#45;C</title>
<path fill="none" stroke="black" d="M326.06,-352.83C315.72,-339.64 302.04,-319.52 296.25,-299.25 287.67,-269.19 295.35,-232.55 301.39,-211.53"/>
<text text-anchor="middle" x="299.38" y="-275.82" font-family="Times New Roman,serif" font-size="14.00">7</text>
</g>
<!-- A&#45;&#45;C -->
<g id="edge16" class="edge">
<title>A&#45;&#45;C</title>
<path fill="none" stroke="black" d="M332.68,-263.31C327.07,-248.28 318.92,-226.43 313.31,-211.41"/>
<text text-anchor="middle" x="328.38" y="-231.95" font-family="Times New Roman,serif" font-size="14.00">6</text>
</g>
<!-- C&#45;&#45;E -->
<g id="edge18" class="edge">
<title>C&#45;&#45;E</title>
<path fill="none" stroke="black" d="M286.5,-181.45C281.54,-179.16 276.18,-177 271,-175.5 208.31,-157.34 179.38,-193.97 125.25,-157.5 113.54,-149.61 106.19,-135.17 101.93,-123.71"/>
<text text-anchor="middle" x="128.38" y="-144.2" font-family="Times New Roman,serif" font-size="14.00">8</text>
</g>
<!-- C&#45;&#45;D -->
<g id="edge19" class="edge">
<title>C&#45;&#45;D</title>
<path fill="none" stroke="black" d="M300.45,-175.55C287.61,-142.29 259.26,-68.87 246.47,-35.77"/>
<text text-anchor="middle" x="286.75" y="-100.33" font-family="Times New Roman,serif" font-size="14.00">14</text>
</g>
<!-- C&#45;&#45;H -->
<g id="edge17" class="edge">
<title>C&#45;&#45;H</title>
<path fill="none" stroke="black" d="M286.52,-181.26C274.87,-174.67 260.13,-165.99 247.5,-157.5 229.9,-145.67 210.75,-130.83 197.54,-120.26"/>
<text text-anchor="middle" x="253.75" y="-144.2" font-family="Times New Roman,serif" font-size="14.00">20</text>
</g>
</g>
</svg>
